<?xml version="1.0" encoding="UTF-8"?>
<svg version="1.1" xmlns="http://www.w3.org/2000/svg" width="982" height="250">
<path d="M0 0 C1.68397888 -0.01051392 1.68397888 -0.01051392 3.40197754 -0.02124023 C7.10677953 -0.03882132 10.81081546 -0.02719621 14.515625 -0.01367188 C17.09342597 -0.01636673 19.67122595 -0.0202491 22.24902344 -0.02526855 C27.64919663 -0.0311638 33.0490828 -0.02298214 38.44921875 -0.00390625 C44.68304383 0.01786102 50.91634553 0.01080896 57.15015793 -0.01121187 C63.15913849 -0.03158489 69.16786401 -0.02938561 75.17687988 -0.01768494 C77.72855706 -0.01501739 80.28024761 -0.01828836 82.83190918 -0.02760315 C86.39871557 -0.03776637 89.96451831 -0.02226888 93.53125 0 C95.11178162 -0.01214539 95.11178162 -0.01214539 96.72424316 -0.02453613 C102.53531537 0.04264667 106.28241323 0.41406602 110.765625 4.51757812 C112.64464369 7.5536653 113.01909503 9.85533899 113.03305054 13.3999939 C113.04584549 14.87191948 113.04584549 14.87191948 113.05889893 16.37358093 C113.05753937 17.97892448 113.05753937 17.97892448 113.05615234 19.61669922 C113.06286957 20.74881332 113.06958679 21.88092743 113.07650757 23.04734802 C113.09552819 26.79528169 113.09941381 30.54303668 113.1015625 34.29101562 C113.10798745 36.89409459 113.11471558 39.49717282 113.12173462 42.10025024 C113.13452088 47.55935837 113.13749998 53.01841799 113.13623047 58.47753906 C113.13502926 64.78058733 113.15612816 71.08329306 113.1877178 77.38625467 C113.21705627 83.45712668 113.22420565 89.52783475 113.22301102 95.59877396 C113.22537236 98.17837549 113.23422573 100.75797951 113.24967575 103.33753586 C113.26926044 106.94520276 113.26352633 110.55198701 113.25146484 114.15966797 C113.26270386 115.22584854 113.27394287 116.29202911 113.28552246 117.39051819 C113.23455795 123.38625083 112.89360571 127.02602319 108.765625 131.51757812 C105.73689249 133.38982258 103.44970662 133.76968832 99.91444397 133.77827454 C98.45297188 133.78890175 98.45297188 133.78890175 96.9619751 133.79974365 C95.89952576 133.79726624 94.83707642 133.79478882 93.74243164 133.79223633 C92.61846481 133.79734726 91.49449799 133.80245819 90.33647156 133.807724 C86.61618749 133.82163913 82.89608827 133.82066179 79.17578125 133.81835938 C76.59272696 133.82224515 74.0096733 133.82657957 71.42662048 133.8313446 C66.01038268 133.8388109 60.59421671 133.83865057 55.17797852 133.83325195 C48.92154473 133.82721167 42.6653358 133.83952534 36.40894037 133.86082202 C30.38505675 133.88057163 24.36129078 133.88361067 18.33736992 133.8800869 C15.77648834 133.88060084 13.21560321 133.88585225 10.65474129 133.89589882 C7.07572156 133.90821643 3.49722407 133.90149918 -0.08178711 133.88989258 C-1.14221222 133.89753632 -2.20263733 133.90518005 -3.29519653 133.91305542 C-12.39559246 133.84772867 -12.39559246 133.84772867 -16.234375 130.51757812 C-24.04330106 122.1873615 -20.41900081 101.85998189 -20.4375 91.06054688 C-20.44032738 89.94393488 -20.44315475 88.82732288 -20.44606781 87.67687416 C-20.46097617 81.7814066 -20.47026152 75.88596303 -20.47460938 69.99047852 C-20.48011847 63.9133383 -20.50422147 57.83641936 -20.53258133 51.75934887 C-20.5512072 47.06929372 -20.55641303 42.37929228 -20.55794525 37.68920326 C-20.5609664 35.44815152 -20.56897672 33.20710061 -20.58213043 30.96608543 C-20.59920874 27.83618526 -20.59730751 24.70683232 -20.59082031 21.5769043 C-20.6000351 20.6577977 -20.60924988 19.7386911 -20.6187439 18.79173279 C-20.5829743 13.27493482 -20.07753501 9.30746679 -17.234375 4.51757812 C-12.09993722 -0.45117568 -6.74008965 -0.05179333 0 0 Z " fill="#F2F15C" transform="translate(78.234375,53.482421875)"/>
<path d="M0 0 C1.77105627 0.94054615 3.5216214 1.9206545 5.25 2.9375 C6.12140625 3.44152344 6.9928125 3.94554688 7.890625 4.46484375 C10 6 10 6 11 9 C12.94603274 9.59070014 12.94603274 9.59070014 15 10 C15.66 10.66 16.32 11.32 17 12 C21.70410845 12.70697584 24.24546026 11.56908636 28.05078125 8.80078125 C28.61152344 8.37152344 29.17226562 7.94226563 29.75 7.5 C35.79054054 3 35.79054054 3 38 3 C38 2.34 38 1.68 38 1 C38.99 1 39.98 1 41 1 C41 0.34 41 -0.32 41 -1 C42.32 -1.33 43.64 -1.66 45 -2 C45 8.23 45 18.46 45 29 C46.98 29.495 46.98 29.495 49 30 C51.04296875 31.19921875 51.04296875 31.19921875 53.1875 32.6875 C57.18921077 35.44615443 61.24626923 38.09506351 65.34765625 40.703125 C65.89292969 41.13109375 66.43820313 41.5590625 67 42 C67 42.66 67 43.32 67 44 C67.66 44.33 68.32 44.66 69 45 C67.35 45.66 65.7 46.32 64 47 C64 47.66 64 48.32 64 49 C62.68 49.33 61.36 49.66 60 50 C60 50.66 60 51.32 60 52 C58.3203125 53.2890625 58.3203125 53.2890625 56.125 54.625 C55.40570313 55.07101563 54.68640625 55.51703125 53.9453125 55.9765625 C52 57 52 57 50 57 C50 57.66 50 58.32 50 59 C48.1952383 60.24172475 46.32653302 61.39067616 44.4375 62.5 C40.52600718 64.81218283 36.69353693 67.17415393 32.97265625 69.78515625 C31.97890991 70.47738281 31.97890991 70.47738281 30.96508789 71.18359375 C29.67347466 72.08992144 28.38976102 73.00763223 27.11499023 73.9375 C24.54881728 75.72266379 22.66490576 76.9803221 19.4921875 77.07421875 C16.03229669 75.5828865 13.12023743 73.49805239 10.125 71.25 C9.53847656 70.81945312 8.95195313 70.38890625 8.34765625 69.9453125 C7.16216741 69.07508553 5.97856997 68.20227608 4.796875 67.3269043 C0.32725044 64.02630518 -4.11100013 60.91960578 -8.984375 58.23046875 C-12.54192062 56.05871125 -15.82890426 53.50529561 -19.15625 51 C-22.29946418 48.78938783 -25.6635729 46.90652977 -29 45 C-29 34.44 -29 23.88 -29 13 C-27.02 12.01 -25.04 11.02 -23 10 C-22.67 9.34 -22.34 8.68 -22 8 C-19.72566419 6.63539852 -17.38506923 5.44035239 -15.03125 4.21875 C-12.85699299 3.16138222 -12.85699299 3.16138222 -12 1 C-7.07358212 -1.65268655 -5.00481282 -2.43457009 0 0 Z " fill="#4BBA61" transform="translate(104,83)"/>
<path d="M0 0 C1.26679263 1.08485965 2.52363602 2.18213926 3.75 3.3125 C3.14632003 6.52265704 2.12164702 8.53315406 0.0625 11.0625 C-0.65486328 11.98289062 -0.65486328 11.98289062 -1.38671875 12.921875 C-4.1229187 14.96398649 -5.90054674 14.69881731 -9.25 14.3125 C-11.36353965 13.51321724 -13.4476136 12.63281098 -15.5 11.6875 C-23.05350587 8.63505585 -27.75326096 9.41387685 -35.0625 12.5 C-42.12550306 18.35220254 -44.10297148 25.44079268 -45.25 34.3125 C-45.46190504 41.31384247 -44.8524401 48.69481576 -40.25 54.3125 C-36.1491552 57.5574516 -32.47638044 57.68805391 -27.4375 57.5 C-26.74462891 57.48646484 -26.05175781 57.47292969 -25.33789062 57.45898438 C-23.64158735 57.42388845 -21.94568864 57.37008943 -20.25 57.3125 C-19.92 53.6825 -19.59 50.0525 -19.25 46.3125 C-20.36375 46.18875 -21.4775 46.065 -22.625 45.9375 C-26.25 45.3125 -26.25 45.3125 -28.25 43.3125 C-28.26171875 41.21875 -28.26171875 41.21875 -27.9375 38.8125 C-27.83824219 38.0184375 -27.73898438 37.224375 -27.63671875 36.40625 C-27.25 34.3125 -27.25 34.3125 -26.25 32.3125 C-17.34 32.3125 -8.43 32.3125 0.75 32.3125 C0.07902527 39.69322203 -0.63335147 46.98063056 -1.625 54.3125 C-1.7384375 55.23933594 -1.851875 56.16617188 -1.96875 57.12109375 C-2.08992188 58.00925781 -2.21109375 58.89742188 -2.3359375 59.8125 C-2.4395459 60.6065625 -2.5431543 61.400625 -2.64990234 62.21875 C-3.55099776 65.36268582 -5.3207796 66.74486754 -8.046875 68.41015625 C-19.36773801 74.00266258 -31.24394193 75.97199986 -43.53125 72.3828125 C-51.35053604 69.30453035 -58.39072553 62.72731649 -62.31640625 55.29296875 C-67.23945043 42.47402762 -65.79741311 28.03728133 -60.4296875 15.65625 C-55.0056905 4.88009701 -45.48801046 -1.70828229 -34.25 -5.6875 C-22.86822359 -8.65665906 -9.38706358 -7.26835331 0 0 Z " fill="#3F3F3F" transform="translate(273.25,87.6875)"/>
<path d="M0 0 C1.3303125 1.36125 1.3303125 1.36125 2.6875 2.75 C2.42148064 7.27232911 0.57291279 9.61661579 -2.64453125 12.57421875 C-4.3125 13.75 -4.3125 13.75 -7.1875 14.375 C-10.00584994 13.81133001 -11.69517394 13.1316804 -14.1875 11.8125 C-19.18179283 9.17347027 -23.23234692 8.02300735 -28.828125 9.34375 C-34.87120289 11.44254352 -39.05604803 14.18286429 -42.3125 19.75 C-46.23955729 27.96247722 -47.0317405 38.60325307 -44.5859375 47.34765625 C-42.6405107 51.57856412 -40.26888391 54.19322822 -36.3125 56.75 C-32.80260836 57.26869003 -32.80260836 57.26869003 -29.125 57.0625 C-27.89394531 57.03800781 -26.66289063 57.01351562 -25.39453125 56.98828125 C-22.401744 56.95167943 -22.401744 56.95167943 -20.3125 55.75 C-19.88288779 53.69068468 -19.88288779 53.69068468 -19.75 51.3125 C-19.40583333 46.93666667 -19.40583333 46.93666667 -18.3125 44.75 C-21.2825 44.75 -24.2525 44.75 -27.3125 44.75 C-28.70326722 39.80504989 -28.02352537 37.43820298 -27.3125 31.75 C-18.4025 31.75 -9.4925 31.75 -0.3125 31.75 C-1.64564951 61.34591921 -1.64564951 61.34591921 -5.9375 66.82421875 C-8.0361496 68.23319116 -9.90094175 69.00229369 -12.3125 69.75 C-13.07949219 70.04648438 -13.84648438 70.34296875 -14.63671875 70.6484375 C-26.08191412 74.66623555 -37.47180018 74.75476146 -48.59765625 69.71484375 C-56.39831933 65.28094084 -61.91604171 58.59917284 -64.65234375 50.05859375 C-67.15917728 37.49475942 -66.34241503 23.00451067 -59.58203125 11.91015625 C-52.62674694 2.67809225 -43.71591616 -4.00908902 -32.5 -7 C-21.06647365 -7.89674716 -9.21135193 -7.83707765 0 0 Z " fill="#404040" transform="translate(729.3125,88.25)"/>
<path d="M0 0 C1.75183594 0.00386719 1.75183594 0.00386719 3.5390625 0.0078125 C4.70179688 0.00523438 5.86453125 0.00265625 7.0625 0 C10.1640625 0.1328125 10.1640625 0.1328125 13.1640625 1.1328125 C14.34924017 3.50316785 14.44564108 5.28815348 14.6640625 7.9296875 C14.7878125 9.36828125 14.7878125 9.36828125 14.9140625 10.8359375 C15.0378125 12.34414062 15.0378125 12.34414062 15.1640625 13.8828125 C15.86106873 22.54520725 15.86106873 22.54520725 17.1640625 31.1328125 C17.35516602 30.60437744 17.54626953 30.07594238 17.74316406 29.53149414 C18.6301265 27.08487604 19.52206971 24.64010089 20.4140625 22.1953125 C20.71441406 21.36451172 21.01476562 20.53371094 21.32421875 19.67773438 C26.77830743 4.76602383 26.77830743 4.76602383 29.9140625 1.0703125 C34.20510917 -0.71762361 39.8300713 -0.60078398 44.1640625 1.1328125 C45.49537572 3.79543894 45.70948189 6.2850625 46.13671875 9.234375 C46.31396484 10.44609375 46.49121094 11.6578125 46.67382812 12.90625 C46.94743164 14.81277344 46.94743164 14.81277344 47.2265625 16.7578125 C47.41283203 18.0365625 47.59910156 19.3153125 47.79101562 20.6328125 C48.25177348 23.79904597 48.70931701 26.96571085 49.1640625 30.1328125 C51.27431913 26.85493896 52.6630081 23.9728671 53.59375 20.19140625 C53.83222656 19.27810547 54.07070313 18.36480469 54.31640625 17.42382812 C54.79864041 15.51965487 55.27259161 13.61336498 55.73828125 11.70507812 C56.82334834 7.59981091 57.63397315 4.74866502 60.43359375 1.49609375 C63.83437775 -0.20186564 66.193306 -0.27004635 69.9765625 -0.1171875 C71.71873047 -0.06304687 71.71873047 -0.06304687 73.49609375 -0.0078125 C74.37652344 0.03859375 75.25695312 0.085 76.1640625 0.1328125 C75.60367722 4.21050965 74.69935235 7.62242092 73.0390625 11.3828125 C70.79699975 16.59269241 68.70104953 21.84062406 66.6640625 27.1328125 C62.75525922 37.24767046 58.63107181 47.25049024 54.1640625 57.1328125 C51.89484714 57.26770641 49.6233558 57.36475245 47.3515625 57.4453125 C45.45470703 57.53232422 45.45470703 57.53232422 43.51953125 57.62109375 C40.1640625 57.1328125 40.1640625 57.1328125 38.52734375 54.97460938 C37.08247575 51.96274271 36.48649098 49.47327986 35.99609375 46.17578125 C35.82529297 45.06396484 35.65449219 43.95214844 35.47851562 42.80664062 C35.31287109 41.65615234 35.14722656 40.50566406 34.9765625 39.3203125 C34.79931641 38.15048828 34.62207031 36.98066406 34.43945312 35.77539062 C34.00458245 32.89584155 33.57982108 30.01517243 33.1640625 27.1328125 C32.78894531 28.07640625 32.41382813 29.02 32.02734375 29.9921875 C30.96306857 32.66652 29.89155288 35.33783365 28.81640625 38.0078125 C27.7878245 40.56350202 26.78261534 43.12392308 25.79296875 45.6953125 C25.17228516 47.273125 25.17228516 47.273125 24.5390625 48.8828125 C24.17554688 49.82640625 23.81203125 50.77 23.4375 51.7421875 C21.96587099 54.50487755 20.92448484 55.66090898 18.1640625 57.1328125 C15.21875 57.49609375 15.21875 57.49609375 12.0390625 57.4453125 C10.98460937 57.44144531 9.93015625 57.43757813 8.84375 57.43359375 C6.1640625 57.1328125 6.1640625 57.1328125 4.1640625 55.1328125 C3.66453552 53.19979858 3.66453552 53.19979858 3.31030273 50.81005859 C3.17353622 49.9150766 3.03676971 49.0200946 2.89585876 48.09799194 C2.75620193 47.1272171 2.6165451 46.15644226 2.47265625 45.15625 C2.3224855 44.15703522 2.17231476 43.15782043 2.01759338 42.12832642 C1.53782742 38.92258839 1.06968686 35.71526902 0.6015625 32.5078125 C0.28263781 30.36837962 -0.03701496 28.22905515 -0.35742188 26.08984375 C-1.19957135 20.43970891 -2.03573824 14.78905552 -2.8359375 9.1328125 C-2.95274872 8.33675598 -3.06955994 7.54069946 -3.18991089 6.72052002 C-3.44833304 4.86343785 -3.64873171 2.99841969 -3.8359375 1.1328125 C-2.8359375 0.1328125 -2.8359375 0.1328125 0 0 Z " fill="#3E3E3E" transform="translate(374.8359375,103.8671875)"/>
<path d="M0 0 C1.15113281 -0.01417969 2.30226563 -0.02835937 3.48828125 -0.04296875 C6.66302221 0.18573664 8.14667524 0.34057261 10.6875 2.1875 C11.30932617 4.73779297 11.30932617 4.73779297 11.48046875 7.9296875 C11.55330078 9.07824219 11.62613281 10.22679688 11.70117188 11.41015625 C11.75853516 12.61542969 11.81589844 13.82070312 11.875 15.0625 C12.01163245 17.4350523 12.15084748 19.80745766 12.29296875 22.1796875 C12.34606201 23.23526855 12.39915527 24.29084961 12.45385742 25.37841797 C12.65335565 27.77698286 13.0138294 29.88518659 13.6875 32.1875 C13.92984375 31.50945312 14.1721875 30.83140625 14.421875 30.1328125 C16.71591062 23.76245205 19.10186294 17.44534535 21.6875 11.1875 C22.02910156 10.34445313 22.37070312 9.50140625 22.72265625 8.6328125 C23.06167969 7.82585937 23.40070312 7.01890625 23.75 6.1875 C24.05035156 5.465625 24.35070312 4.74375 24.66015625 4 C25.6875 2.1875 25.6875 2.1875 28.6875 0.1875 C30.80859375 -0.078125 30.80859375 -0.078125 33.125 -0.0625 C33.88683594 -0.06765625 34.64867187 -0.0728125 35.43359375 -0.078125 C38.08395073 0.2342221 39.493797 0.6460986 41.6875 2.1875 C42.49291992 4.86132812 42.49291992 4.86132812 42.91796875 8.21875 C43.08103516 9.42144531 43.24410156 10.62414062 43.41210938 11.86328125 C43.64124023 13.75626953 43.64124023 13.75626953 43.875 15.6875 C44.19927412 18.1774166 44.52597248 20.66701907 44.85546875 23.15625 C44.99235107 24.26419922 45.1292334 25.37214844 45.27026367 26.51367188 C45.54325182 29.15230748 45.54325182 29.15230748 46.6875 31.1875 C46.93918945 30.35500732 47.19087891 29.52251465 47.45019531 28.66479492 C48.39330453 25.56943439 49.34887407 22.47828083 50.31298828 19.3894043 C50.72718523 18.05338435 51.13642292 16.71581616 51.54052734 15.37670898 C52.12322672 13.44893329 52.7254556 11.52709496 53.328125 9.60546875 C53.86228027 7.86946411 53.86228027 7.86946411 54.40722656 6.09838867 C55.78171508 2.97328825 56.71702718 1.802624 59.6875 0.1875 C62.921875 -0.10546875 62.921875 -0.10546875 66.4375 0 C67.60796875 0.02707031 68.7784375 0.05414063 69.984375 0.08203125 C70.87640625 0.11683594 71.7684375 0.15164062 72.6875 0.1875 C72.12930076 6.2620211 70.26638054 11.32484485 67.9375 16.9375 C67.57479004 17.82856445 67.21208008 18.71962891 66.83837891 19.63769531 C64.65976052 24.95371825 62.35287779 30.19052627 59.91015625 35.390625 C57.98983243 39.78344243 56.36387404 44.28556303 54.74169922 48.79589844 C53.61807827 51.8849064 52.52159716 54.43635426 50.6875 57.1875 C47.7890625 57.65625 47.7890625 57.65625 44.3125 57.6875 C43.17039062 57.7184375 42.02828125 57.749375 40.8515625 57.78125 C37.6875 57.1875 37.6875 57.1875 35.56884766 55.02270508 C33.51908921 51.93370367 32.94523522 49.87529888 32.421875 46.23046875 C32.17050781 44.56274414 32.17050781 44.56274414 31.9140625 42.86132812 C31.75679687 41.71083984 31.59953125 40.56035156 31.4375 39.375 C31.26476562 38.20517578 31.09203125 37.03535156 30.9140625 35.83007812 C30.49100907 32.95096451 30.08270753 30.07054531 29.6875 27.1875 C29.35508301 28.0522998 29.02266602 28.91709961 28.68017578 29.80810547 C27.82843438 32.02150545 26.97373724 34.23376882 26.1171875 36.4453125 C25.17543425 38.88978193 24.27193156 41.33964484 23.3828125 43.8046875 C22.96773437 44.94164062 22.55265625 46.07859375 22.125 47.25 C21.75246094 48.29285156 21.37992188 49.33570313 20.99609375 50.41015625 C19.55556718 53.46751265 18.40816036 55.17678429 15.6875 57.1875 C12.7421875 57.61328125 12.7421875 57.61328125 9.5625 57.5 C7.98082031 57.46326172 7.98082031 57.46326172 6.3671875 57.42578125 C3.6875 57.1875 3.6875 57.1875 1.6875 56.1875 C1.03043568 53.40569796 0.49840398 50.68248287 0.03125 47.8671875 C-0.11654907 47.01633575 -0.26434814 46.16548401 -0.41662598 45.28884888 C-0.72996135 43.47533867 -1.03903339 41.66108763 -1.34423828 39.84619141 C-1.80264022 37.12111375 -2.27305636 34.39835214 -2.74609375 31.67578125 C-6.68743202 8.81361092 -6.68743202 8.81361092 -7.3125 1.1875 C-5.45615553 -0.66884447 -2.48420097 0.01381647 0 0 Z " fill="#3F3F3F" transform="translate(823.3125,103.8125)"/>
<path d="M0 0 C5.61 0 11.22 0 17 0 C18.30553038 3.91659114 17.46606683 7.02227169 16.75390625 10.98046875 C15.39260464 19.04270208 14.35236012 27.11073129 13.46484375 35.23828125 C13.27615219 36.95662674 13.27615219 36.95662674 13.08364868 38.70968628 C12.56615676 43.45481431 12.05616855 48.2007198 11.54956055 52.94702148 C11.17273947 56.46140635 10.78794213 59.97485027 10.40234375 63.48828125 C10.29083481 64.55701981 10.17932587 65.62575836 10.06443787 66.72688293 C9.51235167 71.72923304 8.88565154 76.28662803 7 81 C5.41705218 81.05437607 3.83355744 81.09296271 2.25 81.125 C1.36828125 81.14820313 0.4865625 81.17140625 -0.421875 81.1953125 C-3.16365272 80.98760207 -4.71590695 80.50913291 -7 79 C-8.25 76.375 -8.25 76.375 -9 74 C-9.70125 74.598125 -10.4025 75.19625 -11.125 75.8125 C-15.68424118 79.28148785 -20.18676569 81.88820703 -26 82 C-30.30951212 80.96708519 -34.45719925 79.70392876 -37.49609375 76.34765625 C-43.15355449 66.87710842 -41.39971271 55.58553647 -39.05078125 45.34375 C-37.53161997 40.50954162 -35.14187542 36.92106053 -32 33 C-31.38125 32.071875 -30.7625 31.14375 -30.125 30.1875 C-26.28878754 26.23845776 -22.47841851 24.22877709 -16.953125 23.71875 C-12.37881078 23.67412254 -8.45445924 23.88638519 -4 25 C-2.02 12.625 -2.02 12.625 0 0 Z M-19 41 C-22.80510752 48.29934024 -24.08424191 55.83036329 -23 64 C-22.34 64.99 -21.68 65.98 -21 67 C-18.56945573 67.54209157 -18.56945573 67.54209157 -16 67 C-10.84931792 63.04763988 -7.30669028 57.32438093 -6 51 C-5.49686406 46.67103827 -5.19244215 42.35317426 -5 38 C-10.37637126 35.31181437 -15.23471501 36.62412826 -19 41 Z " fill="#414141" transform="translate(625,80)"/>
<path d="M0 0 C-0.52995277 5.27985698 -1.06315183 10.55937341 -1.59912109 15.83862305 C-1.78031168 17.62759946 -1.96067632 19.41665975 -2.14013672 21.20581055 C-2.73571022 27.13991855 -3.3506285 33.07152318 -4 39 C-4.08463501 39.77301453 -4.16927002 40.54602905 -4.25646973 41.34246826 C-4.49518276 43.46819227 -4.74819913 45.59158301 -5.0078125 47.71484375 C-5.15105957 48.91101318 -5.29430664 50.10718262 -5.44189453 51.33959961 C-5.71815674 52.6564978 -5.71815674 52.6564978 -6 54 C-9.95941061 55.97970531 -14.68752586 55.31385251 -18.875 54.3125 C-21.61550355 52.61983604 -22.12070962 51.0375486 -23 48 C-23.40089844 48.40992188 -23.80179687 48.81984375 -24.21484375 49.2421875 C-28.67913051 53.47364297 -32.73614298 55.85562032 -39 56 C-43.72349229 54.58295231 -47.59925323 52.58967715 -51 49 C-55.04888004 41.21119061 -55.07269517 32.36837363 -52.9375 24 C-49.34776356 13.46563326 -43.39068894 6.03013636 -33.71484375 0.75390625 C-23.59032556 -3.76848286 -10.34573912 -3.71309531 0 0 Z M-29.65234375 14.51171875 C-34.95181093 20.2776427 -36.41499582 26.1740861 -36.26953125 33.91015625 C-35.89875052 36.78505033 -34.75741686 38.73000323 -33 41 C-29.84354922 40.73696243 -28.30519162 40.27744693 -25.9375 38.125 C-20.41816045 29.22283943 -19.3017362 20.33446491 -19 10 C-23.39818707 10 -26.39938136 11.53560422 -29.65234375 14.51171875 Z " fill="#3E3E3E" transform="translate(523,106)"/>
<path d="M0 0 C1.7492214 -0.08142927 3.49954542 -0.13938541 5.25 -0.1875 C6.22453125 -0.22230469 7.1990625 -0.25710937 8.203125 -0.29296875 C11.44071042 0.0461638 12.66343525 0.78233124 15 3 C15.99 4.485 15.99 4.485 17 6 C17.721875 5.38125 18.44375 4.7625 19.1875 4.125 C25.1651806 -0.39146979 30.72248738 -0.64213347 38 0 C41.53334121 0.96363851 43.17296064 1.79444106 45.24609375 4.81640625 C49.99155348 13.99534046 48.04827652 24.29814322 46.5625 34.125 C46.29190532 35.98161615 46.0223618 37.83838583 45.75390625 39.6953125 C45.55692139 41.0261084 45.55692139 41.0261084 45.35595703 42.38378906 C44.91549166 45.6211189 44.61651109 48.86394246 44.35913086 52.12060547 C44 54 44 54 42 57 C39.40152495 57.30395006 37.09360893 57.4186308 34.5 57.375 C33.81035156 57.38660156 33.12070312 57.39820313 32.41015625 57.41015625 C30.40625 57.3984375 30.40625 57.3984375 27 57 C24.46370801 53.19556202 25.0108636 51.90785987 25.6796875 47.4609375 C25.86660156 46.15769531 26.05351563 44.85445312 26.24609375 43.51171875 C26.4548607 42.13268075 26.66450249 40.75377491 26.875 39.375 C28.70291526 27.24591478 28.70291526 27.24591478 29 15 C24.41586044 15.07057206 24.41586044 15.07057206 20.52734375 17.2734375 C14.62804425 24.95876346 13.57196943 34.5673883 12.9375 43.9375 C12.80868012 45.78051703 12.67229553 47.62302527 12.52734375 49.46484375 C12.44601196 50.66548462 12.44601196 50.66548462 12.36303711 51.89038086 C12 54 12 54 10 57 C7.40990446 57.24950462 5.0812871 57.32719737 2.5 57.25 C1.81035156 57.24484375 1.12070312 57.2396875 0.41015625 57.234375 C-4.69032948 57.15483526 -4.69032948 57.15483526 -7 56 C-4.80383892 37.31491984 -2.43442167 18.6552206 0 0 Z " fill="#454545" transform="translate(532,104)"/>
<path d="M0 0 C4.75513212 3.75987191 7.34816385 8.23196674 9 14 C10.31765281 25.28951918 7.74583837 34.89699512 1 44 C-4.71820938 50.25387303 -12.11109659 54.50550666 -20.640625 55.09375 C-27.66573915 54.81460639 -33.51089387 52.44479148 -38.59765625 47.609375 C-44.06046196 41.34008266 -44.47935578 33.91584819 -44 26 C-43.02629707 16.88550205 -38.78035981 9.25858429 -32.0625 3.0625 C-23.03208675 -4.12116833 -10.26465676 -6.33351162 0 0 Z M-23 15 C-24.99024548 18.94605766 -25.42890599 22.61801114 -25.75 27 C-25.84796875 28.19625 -25.9459375 29.3925 -26.046875 30.625 C-25.99980839 34.01379616 -25.59112229 36.03277194 -24 39 C-21.80581563 40.67778312 -21.80581563 40.67778312 -19 41 C-15.75198532 40.21001187 -15.75198532 40.21001187 -13 38 C-9.06129102 30.66585225 -8.32350136 23.2040835 -9 15 C-9.93577046 11.81304135 -9.93577046 11.81304135 -12 10 C-16.96142836 8.65907342 -19.62983182 11.62983182 -23 15 Z " fill="#424242" transform="translate(803,107)"/>
<path d="M0 0 C5.49667018 3.35907622 8.92139788 8.13160162 10.93359375 14.1796875 C13.33816688 24.6554247 9.95747831 35.41007172 4.4375 44.375 C-0.35778568 50.66881246 -9.08123316 55.09633513 -16.875 56.375 C-20.89128521 56.375 -23.80168482 55.76789451 -27.5625 54.375 C-28.5525 54.024375 -29.5425 53.67375 -30.5625 53.3125 C-35.59722982 50.06090366 -39.65860967 45.08667098 -41.5625 39.375 C-42.53322473 27.40735085 -41.38832852 17.298774 -33.8125 7.4375 C-25.55289579 -1.33698862 -11.20323549 -5.172375 0 0 Z M-18.3125 13.4375 C-22.61595309 19.05589708 -24.03724106 23.52123799 -23.875 30.5625 C-23.87822266 31.27341797 -23.88144531 31.98433594 -23.88476562 32.71679688 C-23.8460158 36.46143905 -23.68637317 38.18919024 -21.5625 41.375 C-18.4134084 42.56654817 -17.05303106 42.5852276 -13.9375 41.25 C-9.30175124 37.59019835 -7.75233354 33.04959072 -6.5625 27.375 C-5.8396729 19.5157885 -5.8396729 19.5157885 -8.5625 12.375 C-12.87087668 10.99306786 -14.62653672 10.67302754 -18.3125 13.4375 Z " fill="#3F3F3F" transform="translate(355.5625,105.625)"/>
<path d="M0 0 C11 6 11 6 15 9 C15 9.66 15 10.32 15 11 C15.61875 11.12375 16.2375 11.2475 16.875 11.375 C19 12 19 12 21 14 C23.06874034 14.6425235 23.06874034 14.6425235 25 15 C25.29893132 19.26781947 25.51529817 23.52997644 25.65917969 27.80517578 C25.71917856 29.25514849 25.80082843 30.70440531 25.90527344 32.15185547 C26.2466299 37.00781842 26.29845364 41.27787916 25 46 C21.44734241 49.68247133 17.58386741 51.80791751 13 54 C12.01 54.66 11.02 55.32 10 56 C9.01 56 8.02 56 7 56 C7 56.66 7 57.32 7 58 C6.01 58 5.02 58 4 58 C4 58.66 4 59.32 4 60 C1.03 59.34 -1.94 58.68 -5 58 C-5 57.34 -5 56.68 -5 56 C-6.32 56 -7.64 56 -9 56 C-9 55.34 -9 54.68 -9 54 C-9.99 54 -10.98 54 -12 54 C-12 53.34 -12 52.68 -12 52 C-12.99 51.67 -13.98 51.34 -15 51 C-14.67 50.01 -14.34 49.02 -14 48 C-14.33 47.34 -14.66 46.68 -15 46 C-15.66 46 -16.32 46 -17 46 C-17 46.66 -17 47.32 -17 48 C-17.66 47.67 -18.32 47.34 -19 47 C-19.495 47.495 -19.495 47.495 -20 48 C-20.66 47.67 -21.32 47.34 -22 47 C-21.61310915 44.63343391 -21.32610068 43.31711719 -19.58203125 41.62109375 C-18.70611328 41.03521484 -18.70611328 41.03521484 -17.8125 40.4375 C-17.18730469 40.01726562 -16.56210938 39.59703125 -15.91796875 39.1640625 C-13.35990483 37.61151047 -10.67501626 36.33750813 -8 35 C-7.67 34.34 -7.34 33.68 -7 33 C-5.02 32.01 -3.04 31.02 -1 30 C-0.67 20.1 -0.34 10.2 0 0 Z " fill="#48BA61" transform="translate(100,81)"/>
<path d="M0 0 C5.61 0 11.22 0 17 0 C18.008731 3.026193 18.0154696 4.04646512 17.53149414 7.07373047 C17.40608749 7.89221466 17.28068085 8.71069885 17.151474 9.5539856 C17.00996414 10.44109222 16.86845428 11.32819885 16.72265625 12.2421875 C15.55119063 19.98412385 14.52416986 27.7228761 13.68359375 35.5078125 C13.52813583 36.94021271 13.52813583 36.94021271 13.36953735 38.40155029 C12.94938994 42.29978728 12.5357141 46.19869874 12.12231445 50.09765625 C9.05037842 78.94962158 9.05037842 78.94962158 7 81 C4.30345146 81.07319621 1.63308542 81.09242537 -1.0625 81.0625 C-1.82111328 81.05798828 -2.57972656 81.05347656 -3.36132812 81.04882812 C-5.24091871 81.0370068 -7.12046899 81.01907078 -9 81 C-9.09882666 74.57424205 -8.7504106 68.3568727 -8.046875 61.97265625 C-7.89647011 60.56373863 -7.89647011 60.56373863 -7.74302673 59.12635803 C-7.41787867 56.10440195 -7.08459652 53.08342347 -6.75 50.0625 C-6.63806305 49.03775574 -6.5261261 48.01301147 -6.41079712 46.95721436 C-4.68834309 31.22820966 -2.67944938 15.59768856 0 0 Z " fill="#424242" transform="translate(742,80)"/>
<path d="M0 0 C1.58294782 -0.05437607 3.16644256 -0.09296271 4.75 -0.125 C5.63171875 -0.14820312 6.5134375 -0.17140625 7.421875 -0.1953125 C10.16365272 0.01239793 11.71590695 0.49086709 14 2 C15.25 4.625 15.25 4.625 16 7 C16.556875 6.21625 17.11375 5.4325 17.6875 4.625 C20.1544035 1.82473116 21.43760287 0.93300877 25 0 C30.36842105 -0.31578947 30.36842105 -0.31578947 33 1 C32.57910004 6.60461531 32.08386889 11.72086547 30 17 C28.948125 16.938125 27.89625 16.87625 26.8125 16.8125 C22.59122481 17.0201037 21.09540822 17.15557082 18 20 C14.03990518 27.41880424 12.90466107 35.32751338 11.8125 43.5625 C11.48906047 45.89760655 11.16242146 48.23227299 10.83203125 50.56640625 C10.69514893 51.58677979 10.5582666 52.60715332 10.41723633 53.65844727 C10 56 10 56 9 57 C6.50761431 57.12653198 4.05529559 57.18519825 1.5625 57.1875 C0.52125977 57.20586914 0.52125977 57.20586914 -0.54101562 57.22460938 C-2.36220901 57.22989842 -4.1828692 57.12169207 -6 57 C-6.66 56.34 -7.32 55.68 -8 55 C-7.99926758 53.10595703 -7.99926758 53.10595703 -7.64453125 50.7578125 C-7.51812256 49.86940674 -7.39171387 48.98100098 -7.26147461 48.06567383 C-7.11331299 47.09525146 -6.96515137 46.1248291 -6.8125 45.125 C-5.28746012 34.48735504 -4.1011491 23.84184884 -3.09106445 13.14306641 C-2.97722412 12.0091748 -2.86338379 10.8752832 -2.74609375 9.70703125 C-2.64997803 8.7013208 -2.5538623 7.69561035 -2.45483398 6.65942383 C-2.01192188 4.06970749 -1.31061236 2.25908625 0 0 Z " fill="#404040" transform="translate(284,104)"/>
<path d="M0 0 C1.66015625 1.09375 1.66015625 1.09375 4.09765625 3.09375 C3.43765625 4.41375 2.77765625 5.73375 2.09765625 7.09375 C2.75765625 8.08375 3.41765625 9.07375 4.09765625 10.09375 C1.09765625 11.09375 1.09765625 11.09375 -2.21484375 10.40625 C-5.91250776 9.80059015 -5.91250776 9.80059015 -9.08984375 11.46875 C-15.22481089 17.19471933 -16.51794545 24.18407331 -16.93359375 32.3515625 C-16.89514137 35.72575848 -16.57116824 38.13537931 -14.90234375 41.09375 C-14.03609375 41.5475 -13.16984375 42.00125 -12.27734375 42.46875 C-9.90234375 44.09375 -9.90234375 44.09375 -9.47265625 45.9453125 C-9.37131182 49.04194792 -9.45627974 51.32552865 -11.02734375 54.03125 C-14.85712845 56.20146133 -17.97029482 56.30477995 -22.21484375 55.34375 C-23.54515625 54.725 -23.54515625 54.725 -24.90234375 54.09375 C-25.39734375 52.60875 -25.39734375 52.60875 -25.90234375 51.09375 C-26.72734375 50.26875 -27.55234375 49.44375 -28.40234375 48.59375 C-32.69738918 44.29870457 -32.17133208 39.82131819 -32.21484375 34.09375 C-32.20463903 22.02156256 -29.86752464 14.0440748 -21.26171875 5.19921875 C-15.43235718 -0.00281086 -7.6833834 -3.66025657 0 0 Z " fill="#3A3A3A" transform="translate(617.90234375,105.90625)"/>
<path d="M0 0 C1.79133978 -0.05391993 3.58313899 -0.09275571 5.375 -0.125 C6.37273438 -0.14820312 7.37046875 -0.17140625 8.3984375 -0.1953125 C11 0 11 0 13 2 C13.125 5.125 13.125 5.125 13 8 C13.54269531 7.566875 14.08539062 7.13375 14.64453125 6.6875 C15.35996094 6.130625 16.07539062 5.57375 16.8125 5 C17.52019531 4.443125 18.22789062 3.88625 18.95703125 3.3125 C21 2 21 2 24 2 C24 3.65 24 5.3 24 7 C23.34 7 22.68 7 22 7 C22.33 8.32 22.66 9.64 23 11 C22.0925 11.639375 21.185 12.27875 20.25 12.9375 C9.5918461 21.88632733 10.30250077 40.27983293 9 53 C4.05 53 -0.9 53 -6 53 C-5.9278125 51.43507812 -5.855625 49.87015625 -5.78125 48.2578125 C-5.68747616 46.21354276 -5.59372746 44.16927187 -5.5 42.125 C-5.45230469 41.09246094 -5.40460937 40.05992187 -5.35546875 38.99609375 C-5.31035156 38.00996094 -5.26523437 37.02382812 -5.21875 36.0078125 C-5.17685547 35.09660645 -5.13496094 34.18540039 -5.09179688 33.24658203 C-5.03399218 31.83190448 -5 30.41585803 -5 29 C-4.34 29 -3.68 29 -3 29 C-1.46465284 14.5036349 -1.46465284 14.5036349 0 0 Z " fill="#3A3A3A" transform="translate(533,106)"/>
<path d="M0 0 C5.7152691 3.24963611 9.24272464 7.99487946 11.2265625 14.203125 C13.67508966 24.36268544 9.90199101 31.89083557 4.90698242 40.63012695 C3.18222507 43.23127504 1.04249965 45.2754717 -1.25 47.375 C-1.724375 47.931875 -2.19875 48.48875 -2.6875 49.0625 C-4.95285245 50.96539606 -7.4395553 51.56309375 -10.25 52.375 C-10.1675 51.281875 -10.085 50.18875 -10 49.0625 C-9.83896039 45.34057142 -9.83896039 45.34057142 -12.25 43.4375 C-13.24 42.9115625 -13.24 42.9115625 -14.25 42.375 C-13.651875 42.189375 -13.05375 42.00375 -12.4375 41.8125 C-9.12552714 39.63606069 -8.48147372 37.06942115 -7.25 33.375 C-6.99730583 30.08214899 -6.99730583 30.08214899 -7.25 27.375 C-6.59 27.375 -5.93 27.375 -5.25 27.375 C-5.36455681 25.45768082 -5.49206258 23.5411325 -5.625 21.625 C-5.69460938 20.55765625 -5.76421875 19.4903125 -5.8359375 18.390625 C-6.23045144 15.5173725 -6.53578584 13.70457309 -8.25 11.375 C-10.92790463 10.53613831 -13.4237941 10.55733586 -16.25 10.375 C-16.37375 9.240625 -16.4975 8.10625 -16.625 6.9375 C-16.83125 5.761875 -17.0375 4.58625 -17.25 3.375 C-17.91 3.045 -18.57 2.715 -19.25 2.375 C-19.25 1.715 -19.25 1.055 -19.25 0.375 C-12.76210435 -2.28670078 -6.47616185 -2.93260159 0 0 Z " fill="#3D3D3D" transform="translate(355.25,105.625)"/>
<path d="M0 0 C7.28865979 1.04123711 7.28865979 1.04123711 11 5 C12.299375 5.2475 12.299375 5.2475 13.625 5.5 C14.40875 5.665 15.1925 5.83 16 6 C16.66666667 7.33333333 17.33333333 8.66666667 18 10 C19.16917969 10.52464844 20.33835938 11.04929687 21.54296875 11.58984375 C23.45019531 12.91259766 23.45019531 12.91259766 25 15 C25.92021087 20.61454041 25.65724077 26.14484654 25.4375 31.8125 C25.40236864 33.3794882 25.37043278 34.94655152 25.34179688 36.51367188 C25.26484327 40.34430607 25.14417319 44.17133034 25 48 C23 47 23 47 22 44 C20.1996467 42.9245223 20.1996467 42.9245223 18 42 C12.69631412 38.98164218 7.72920424 35.86934892 3 32 C2.01 31.67 1.02 31.34 0 31 C0 20.77 0 10.54 0 0 Z " fill="#69F687" transform="translate(149,81)"/>
<path d="M0 0 C3.55455562 1.37877259 6.63020729 2.88902639 9.8125 5 C10.60269531 5.515625 11.39289063 6.03125 12.20703125 6.5625 C12.79871094 7.036875 13.39039062 7.51125 14 8 C14 8.66 14 9.32 14 10 C14.61875 10.12375 15.2375 10.2475 15.875 10.375 C18 11 18 11 20 13 C21.32 13.33 22.64 13.66 24 14 C24 24.23 24 34.46 24 45 C23.01 45 22.02 45 21 45 C21 44.34 21 43.68 21 43 C18.99202501 41.98250595 16.98345042 40.9925683 14.9296875 40.0703125 C14.25164062 39.75835937 13.57359375 39.44640625 12.875 39.125 C12.19179687 38.81820312 11.50859375 38.51140625 10.8046875 38.1953125 C8.61578567 36.74552038 8.08189158 35.34650263 7 33 C5.06381575 32.32843384 5.06381575 32.32843384 3 32 C2.01 31.34 1.02 30.68 0 30 C-0.34057617 27.01904297 -0.34057617 27.01904297 -0.29296875 23.2421875 C-0.28872391 22.57913605 -0.28447906 21.91608459 -0.28010559 21.23294067 C-0.26329971 19.11321559 -0.22564701 16.99443812 -0.1875 14.875 C-0.17245549 13.43881581 -0.15876668 12.00261672 -0.14648438 10.56640625 C-0.1133909 7.04396236 -0.0615968 3.52207364 0 0 Z " fill="#6AFB89" transform="translate(101,82)"/>
<path d="M0 0 C0.0989211 4.21746325 0.17149012 8.43431121 0.21972656 12.65258789 C0.23983525 14.08727786 0.26712673 15.52188593 0.30175781 16.95629883 C0.3503146 19.01924839 0.37297406 21.08111431 0.390625 23.14453125 C0.41157227 24.38565674 0.43251953 25.62678223 0.45410156 26.90551758 C0 30 0 30 -1.83691406 31.9284668 C-4 33 -4 33 -7 33 C-7.33 33.99 -7.66 34.98 -8 36 C-10.58203125 37.75390625 -10.58203125 37.75390625 -13.8125 39.5625 C-14.87082031 40.16191406 -15.92914063 40.76132813 -17.01953125 41.37890625 C-19.32847109 42.63475164 -21.64587301 43.8335521 -24 45 C-24.12365029 40.78257407 -24.21435665 36.56610889 -24.2746582 32.34741211 C-24.29979524 30.91265486 -24.33391108 29.47802559 -24.37719727 28.04370117 C-24.43789665 25.9806363 -24.46621353 23.91926385 -24.48828125 21.85546875 C-24.51446533 20.61434326 -24.54064941 19.37321777 -24.56762695 18.09448242 C-24 15 -24 15 -21.53198242 13.1965332 C-20.69642822 12.80167725 -19.86087402 12.40682129 -19 12 C-18.67 11.34 -18.34 10.68 -18 10 C-15.72566419 8.63539852 -13.38506923 7.44035239 -11.03125 6.21875 C-8.85699299 5.16138222 -8.85699299 5.16138222 -8 3 C-1.53846154 0 -1.53846154 0 0 0 Z " fill="#3B3D37" transform="translate(100,81)"/>
<path d="M0 0 C2.21647953 25.89140379 2.21647953 25.89140379 -1.26123047 32.33789062 C-4.32028866 35.64467964 -7.96557417 37.5689034 -12.11767578 39.21582031 C-14.14351009 40.05978656 -15.95562094 41.08831784 -17.83984375 42.2109375 C-21 44 -21 44 -23 44 C-25.07993013 16.48359103 -25.07993013 16.48359103 -20.46875 11.10546875 C-16.22616813 8.00076382 -12.1505538 6.05011291 -7 5 C-7 4.34 -7 3.68 -7 3 C-6.01 3 -5.02 3 -4 3 C-4 2.34 -4 1.68 -4 1 C-1 0 -1 0 0 0 Z " fill="#3A3C37" transform="translate(149,81)"/>
<path d="M0 0 C1.09054687 0.02320312 2.18109375 0.04640625 3.3046875 0.0703125 C4.40039062 0.08835937 5.49609375 0.10640625 6.625 0.125 C7.46804688 0.14820312 8.31109375 0.17140625 9.1796875 0.1953125 C8.97472656 0.84757812 8.76976562 1.49984375 8.55859375 2.171875 C7.37000413 6.02768247 6.25147425 9.69280523 5.6796875 13.6953125 C5.4321875 14.9328125 5.4321875 14.9328125 5.1796875 16.1953125 C4.1896875 16.8553125 3.1996875 17.5153125 2.1796875 18.1953125 C1.7259375 19.3090625 1.2721875 20.4228125 0.8046875 21.5703125 C-0.9109081 25.39741039 -2.3977787 26.88278966 -5.8203125 29.1953125 C-7.7578125 28.4453125 -7.7578125 28.4453125 -9.8203125 27.1953125 C-12.62755418 20.35556897 -7.73229436 10.61871416 -5.56640625 3.9375 C-4.25796854 0.8821952 -3.31205919 0.22936698 0 0 Z " fill="#393939" transform="translate(439.8203125,105.8046875)"/>
<path d="M0 0 C0 0.99 0 1.98 0 3 C-4.55070287 7.19572772 -10.3331969 6.42146769 -16.13671875 6.38818359 C-17.82288803 6.39606903 -17.82288803 6.39606903 -19.54312134 6.40411377 C-23.25805566 6.41731502 -26.97256133 6.40857484 -30.6875 6.3984375 C-33.26912519 6.40045819 -35.85074982 6.40336958 -38.43237305 6.40713501 C-43.84267132 6.41155855 -49.25280855 6.40541255 -54.66308594 6.39111328 C-60.91216863 6.37478748 -67.16095765 6.3800763 -73.41003323 6.3965925 C-79.42912786 6.41186226 -85.44807916 6.41022648 -91.4671936 6.4014473 C-94.02527915 6.39944503 -96.58337217 6.40190546 -99.14144897 6.40888596 C-102.71559547 6.41649852 -106.28917687 6.40489803 -109.86328125 6.38818359 C-110.92213531 6.39425629 -111.98098938 6.40032898 -113.07192993 6.40658569 C-121.92964047 6.32978711 -121.92964047 6.32978711 -126 3 C-125.34 2.67 -124.68 2.34 -124 2 C-123.34 2.33 -122.68 2.66 -122 3 C-120.48272923 3.09859459 -118.96121133 3.13503898 -117.44075012 3.14044189 C-116.00035873 3.14900711 -116.00035873 3.14900711 -114.53086853 3.15774536 C-112.94514793 3.15942215 -112.94514793 3.15942215 -111.32739258 3.16113281 C-109.66132965 3.16858017 -109.66132965 3.16858017 -107.96160889 3.17617798 C-104.27257679 3.19082967 -100.58358772 3.19760738 -96.89453125 3.203125 C-94.33583067 3.20887493 -91.77713011 3.21463268 -89.21842957 3.22039795 C-84.5330964 3.22957136 -79.84777619 3.23586753 -75.16243631 3.2388947 C-68.2743881 3.24336964 -61.3865389 3.26088907 -54.49855119 3.2898953 C-48.52809965 3.31416154 -42.55769738 3.32184132 -36.58719444 3.32357025 C-34.05028896 3.32659696 -31.51338432 3.33462607 -28.976511 3.34775543 C-25.42404795 3.36482503 -21.8720676 3.36293285 -18.31958008 3.35644531 C-17.27255417 3.3656601 -16.22552826 3.37487488 -15.14677429 3.3843689 C-9.31063096 3.35101123 -5.17992642 2.74106362 0 0 Z " fill="#EBEA84" transform="translate(188,181)"/>
<path d="M0 0 C0.33 0 0.66 0 1 0 C0.4539688 10.46486048 -0.41245909 20.84798257 -1.67456055 31.2512207 C-1.94349875 33.48737815 -2.19740656 35.72496604 -2.45117188 37.96289062 C-2.62149645 39.39073257 -2.79268528 40.81847176 -2.96484375 42.24609375 C-3.1155835 43.52154053 -3.26632324 44.7969873 -3.42163086 46.11108398 C-3.61249268 47.06442627 -3.80335449 48.01776855 -4 49 C-7.95941061 50.97970531 -12.68752586 50.31385251 -16.875 49.3125 C-19.61550355 47.61983604 -20.12070962 46.0375486 -21 43 C-21.40089844 43.40992188 -21.80179687 43.81984375 -22.21484375 44.2421875 C-26.67913051 48.47364297 -30.73614298 50.85562032 -37 51 C-41.72349229 49.58295231 -45.59925323 47.58967715 -49 44 C-53.63927245 35.07545581 -52.81168348 25.42326466 -49.94921875 16.09375 C-48.93934526 13.86621013 -47.82939862 12.59880216 -46 11 C-46.2165625 11.62003906 -46.433125 12.24007812 -46.65625 12.87890625 C-49.4211988 21.67297952 -51.09611568 32.27191195 -47.875 41.1875 C-45.54454239 44.68318641 -43.82778543 46.22787712 -40 48 C-35.24837877 48.82599867 -31.97358486 48.51434672 -27.6875 46.25 C-25.00618541 44.08310346 -25.00618541 44.08310346 -22.8125 41.75 C-21 40 -21 40 -18 40 C-17.505 43.465 -17.505 43.465 -17 47 C-13.37 47.33 -9.74 47.66 -6 48 C-5.85377197 46.61699707 -5.70754395 45.23399414 -5.55688477 43.80908203 C-5.01472439 38.69114897 -4.46749082 33.57376907 -3.91870117 28.45654297 C-3.68163243 26.2392434 -3.44595056 24.02179511 -3.21166992 21.80419922 C-2.87520686 18.62167125 -2.53380379 15.43970676 -2.19140625 12.2578125 C-2.03509483 10.76400558 -2.03509483 10.76400558 -1.87562561 9.24002075 C-1.77559738 8.31921722 -1.67556915 7.3984137 -1.57250977 6.44970703 C-1.48590591 5.6369632 -1.39930206 4.82421936 -1.31007385 3.98684692 C-1 2 -1 2 0 0 Z " fill="#636363" transform="translate(521,111)"/>
<path d="M0 0 C-0.66 1.32 -1.32 2.64 -2 4 C-2.66 3.67 -3.32 3.34 -4 3 C-4.185625 3.639375 -4.37125 4.27875 -4.5625 4.9375 C-6 7 -6 7 -9.25 7.6875 C-11.10625 7.8421875 -11.10625 7.8421875 -13 8 C-15.00097458 8.3274322 -17.00133314 8.65876419 -19 9 C-19.84454356 5.62182575 -20.10844919 3.32534757 -19 0 C-19.99 -0.33 -20.98 -0.66 -22 -1 C-13.67153281 -5.46167885 -8.20155195 -4.0025003 0 0 Z " fill="#3B3B3B" transform="translate(802,108)"/>
<path d="M0 0 C-1.96840045 1.00392807 -3.92664666 1.96922951 -5.96484375 2.82421875 C-11.27544938 5.14826597 -14.53749961 7.68471613 -17 13 C-20.3357271 22.70865321 -21.5426449 32.96099222 -17.25 42.5625 C-15.53265382 45.94625413 -13.44543961 47.43088347 -10 49 C-7.30408429 49.20952713 -4.86549491 49.28744431 -2.1875 49.1875 C-1.49462891 49.17396484 -0.80175781 49.16042969 -0.08789062 49.14648438 C1.60841265 49.11138845 3.30431136 49.05758943 5 49 C5.33 48.01 5.66 47.02 6 46 C6.33 46.99 6.66 47.98 7 49 C3.78955442 52.21044558 0.46558335 52.15357794 -3.9375 52.1875 C-8.70137216 52.10380093 -12.00494697 51.94005157 -15.55859375 48.484375 C-22.05297152 41.32031319 -22.52779685 34.67269453 -22.31640625 25.31640625 C-21.8843063 17.04503682 -19.09062086 9.67535126 -13 4 C-8.83378102 1.298732 -5.08529761 -0.6356622 0 0 Z " fill="#666666" transform="translate(248,96)"/>
<path d="M0 0 C0.33 0 0.66 0 1 0 C1 1.65 1 3.3 1 5 C-3.75 4.125 -3.75 4.125 -6 3 C-12.50713856 2.17648247 -17.67923644 3.11699701 -23 7 C-29.89965474 13.07976889 -34.36624609 19.96456804 -35.20263672 29.24951172 C-35.34308679 31.77311469 -35.41046477 34.28518844 -35.4375 36.8125 C-35.4478125 37.62509277 -35.458125 38.43768555 -35.46875 39.27490234 C-35.39536997 44.22092011 -34.77042186 47.7433283 -32 52 C-31.01 52.66 -30.02 53.32 -29 54 C-29 54.66 -29 55.32 -29 56 C-32.55586962 55.03895416 -33.76801719 54.37282951 -35.75 51.1875 C-39.84620954 40.74216568 -38.30571139 29.51928978 -35 19 C-33.30899604 15.70325278 -31.31160285 12.88488035 -29 10 C-28.38125 9.071875 -27.7625 8.14375 -27.125 7.1875 C-23.28878754 3.23845776 -19.47841851 1.22877709 -13.953125 0.71875 C-9.48099335 0.67511945 -5.31354184 0.73674846 -1 2 C-0.67 1.34 -0.34 0.68 0 0 Z " fill="#5F5F5F" transform="translate(622,103)"/>
<path d="M0 0 C4.31574219 1.05857827 6.95044138 1.81182508 10 5 C10.845625 5.144375 11.69125 5.28875 12.5625 5.4375 C13.366875 5.623125 14.17125 5.80875 15 6 C15.66666667 7.33333333 16.33333333 8.66666667 17 10 C18.16917969 10.52464844 19.33835938 11.04929687 20.54296875 11.58984375 C22.45019531 12.91259766 22.45019531 12.91259766 24 15 C24.92021087 20.61454041 24.65724077 26.14484654 24.4375 31.8125 C24.40236864 33.3794882 24.37043278 34.94655152 24.34179688 36.51367188 C24.26484327 40.34430607 24.14417319 44.17133034 24 48 C22 47 22 47 21.36743164 45.34472656 C20.89640875 42.33894329 20.99670579 39.52496969 21.12109375 36.484375 C21.16943359 35.23398438 21.21777344 33.98359375 21.26757812 32.6953125 C21.32365234 31.39335938 21.37972656 30.09140625 21.4375 28.75 C21.48970703 27.43257812 21.54191406 26.11515625 21.59570312 24.7578125 C21.72534557 21.50496572 21.86031156 18.25242833 22 15 C21.40703125 14.87496094 20.8140625 14.74992187 20.203125 14.62109375 C16.98897198 13.71497614 14.65192386 11.98894289 12 10 C12 9.34 12 8.68 12 8 C11.319375 7.7525 10.63875 7.505 9.9375 7.25 C6.43134917 5.75802092 3.28379632 3.93164489 0 2 C0 1.34 0 0.68 0 0 Z " fill="#8FF378" transform="translate(150,81)"/>
<path d="M0 0 C0.33 0 0.66 0 1 0 C1 9.9 1 19.8 1 30 C1.66 30 2.32 30 3 30 C3.33 30.66 3.66 31.32 4 32 C4.99 32 5.98 32 7 32 C7.33 31.67 7.66 31.34 8 31 C8.99 30.67 9.98 30.34 11 30 C11 30.99 11 31.98 11 33 C11.66 33.33 12.32 33.66 13 34 C12.01 34 11.02 34 10 34 C10.495 34.45375 10.99 34.9075 11.5 35.375 C13 37 13 37 13 39 C13.99 39 14.98 39 16 39 C16 39.66 16 40.32 16 41 C17.32 41 18.64 41 20 41 C20 41.66 20 42.32 20 43 C21.98 43.33 23.96 43.66 26 44 C26.33 44.99 26.66 45.98 27 47 C28.29355827 48.37195574 29.62298702 49.71182656 31 51 C22.89898544 48.02232978 15.76441466 42.80333002 9.046875 37.45703125 C6.17777523 35.41471405 3.05774391 33.74728224 0 32 C0 21.44 0 10.88 0 0 Z " fill="#7DB052" transform="translate(75,96)"/>
<path d="M0 0 C1.65 0 3.3 0 5 0 C5 0.66 5 1.32 5 2 C6.3921875 2.4021875 6.3921875 2.4021875 7.8125 2.8125 C10.85688595 3.946683 11.89711622 4.69684158 14 7 C14.99 7.33 15.98 7.66 17 8 C18.33333333 9.33333333 19.66666667 10.66666667 21 12 C23.39056942 13.9354148 23.39056942 13.9354148 26 15 C29.36105951 14.03969728 30.01133714 12.98299429 32 10 C35.625 9.3125 35.625 9.3125 39 9 C37.33333333 10.33333333 35.66666667 11.66666667 34 13 C32.7934375 14.11375 32.7934375 14.11375 31.5625 15.25 C28.40874797 17.40378188 26.74688874 17.57017872 23 17 C21.3125 15.5625 21.3125 15.5625 20 14 C19.01 13.67 18.02 13.34 17 13 C16.29875 12.2575 15.5975 11.515 14.875 10.75 C10.78396603 6.83683707 6.37922834 2.96371994 0.453125 3.02734375 C-1.89860857 3.48046439 -3.87138354 3.89768076 -6 5 C-6.33 5.99 -6.66 6.98 -7 8 C-7.66 8 -8.32 8 -9 8 C-9.33 6.68 -9.66 5.36 -10 4 C-8.35 3.67 -6.7 3.34 -5 3 C-5 2.67 -5 2.34 -5 2 C-3.35 2 -1.7 2 0 2 C0 1.34 0 0.68 0 0 Z " fill="#CEF46E" transform="translate(98,79)"/>
<path d="M0 0 C1.7492214 -0.08142927 3.49954542 -0.13938541 5.25 -0.1875 C6.22453125 -0.22230469 7.1990625 -0.25710937 8.203125 -0.29296875 C11.44071042 0.0461638 12.66343525 0.78233124 15 3 C15.99 4.485 15.99 4.485 17 6 C17.721875 5.38125 18.44375 4.7625 19.1875 4.125 C23.43957797 0.91231886 26.66611731 -0.3047933 32 0 C31.43410156 0.27972656 30.86820313 0.55945313 30.28515625 0.84765625 C27.98164019 2.00925837 25.70451378 3.2061778 23.4375 4.4375 C22.67308594 4.84871094 21.90867187 5.25992188 21.12109375 5.68359375 C18.96181324 6.9109628 18.96181324 6.9109628 17.34765625 8.66015625 C16 10 16 10 14 10 C13.34 7.69 12.68 5.38 12 3 C8.37 2.67 4.74 2.34 1 2 C1.020625 3.381875 1.04125 4.76375 1.0625 6.1875 C1.05043072 14.6722045 0.95529673 22.9750479 -2 31 C-2.33 31 -2.66 31 -3 31 C-2.47932209 20.57273982 -1.528829 10.33072801 0 0 Z " fill="#595959" transform="translate(532,104)"/>
<path d="M0 0 C0.33 0 0.66 0 1 0 C1 10.23 1 20.46 1 31 C0.01 31.33 -0.98 31.66 -2 32 C-2.33 32.99 -2.66 33.98 -3 35 C-3.99 35 -4.98 35 -6 35 C-6 35.99 -6 36.98 -6 38 C-8.95079533 40.22948981 -11.48579624 41.82859875 -15 43 C-15.515625 43.515625 -16.03125 44.03125 -16.5625 44.5625 C-17.036875 45.036875 -17.51125 45.51125 -18 46 C-18.66 46 -19.32 46 -20 46 C-20.33 46.66 -20.66 47.32 -21 48 C-21.33 46.68 -21.66 45.36 -22 44 C-17.48961003 40.4626637 -13.16982068 37.52186375 -8 35 C-7.67 34.34 -7.34 33.68 -7 33 C-5.02 32.01 -3.04 31.02 -1 30 C-0.67 20.1 -0.34 10.2 0 0 Z " fill="#5EB368" transform="translate(100,81)"/>
<path d="M0 0 C0.66 0.99 1.32 1.98 2 3 C-0.02091952 2.53845962 -1.91262158 2.03595743 -3.83203125 1.24609375 C-13.15844953 -2.56173383 -25.54317115 -2.62511772 -35 1 C-42.63636258 4.54202352 -47.79640922 9.4591736 -53 16 C-53 11.72073451 -50.99868147 10.15174601 -48.203125 7.06640625 C-34.97353253 -5.34220087 -16.31296059 -7.27996301 0 0 Z " fill="#5E5E5E" transform="translate(725,85)"/>
<path d="M0 0 C0.66 0 1.32 0 2 0 C2 10.23 2 20.46 2 31 C1.01 31 0.02 31 -1 31 C-1 30.34 -1 29.68 -1 29 C-1.53625 28.731875 -2.0725 28.46375 -2.625 28.1875 C-3.40875 27.795625 -4.1925 27.40375 -5 27 C-6.03125 26.54625 -7.0625 26.0925 -8.125 25.625 C-11.08373111 23.95267372 -11.916826 23.14120461 -13 20 C-11.35 20.33 -9.7 20.66 -8 21 C-7.67 21.99 -7.34 22.98 -7 24 C-5.68 24 -4.36 24 -3 24 C-3 24.99 -3 25.98 -3 27 C-2.34 27 -1.68 27 -1 27 C-0.67 18.09 -0.34 9.18 0 0 Z " fill="#7BEA86" transform="translate(123,96)"/>
<path d="M0 0 C1.74216797 0.05414063 1.74216797 0.05414063 3.51953125 0.109375 C4.39996094 0.15578125 5.28039062 0.2021875 6.1875 0.25 C5.59648836 4.44307209 4.62147572 8.16658035 3.125 12.125 C2.76277344 13.09179688 2.40054687 14.05859375 2.02734375 15.0546875 C1.75019531 15.77914062 1.47304688 16.50359375 1.1875 17.25 C0.5275 17.25 -0.1325 17.25 -0.8125 17.25 C-0.35714901 15.68662827 0.10192776 14.12434151 0.5625 12.5625 C0.94535156 11.25732422 0.94535156 11.25732422 1.3359375 9.92578125 C2.16367314 7.32486881 3.17380809 4.78422977 4.1875 2.25 C-1.7525 2.745 -1.7525 2.745 -7.8125 3.25 C-10.99069217 10.36309675 -13.81569323 17.47490717 -14.8125 25.25 C-15.4725 25.25 -16.1325 25.25 -16.8125 25.25 C-16.1998435 17.43862961 -15.08175295 7.75565396 -9.59765625 1.875 C-6.14408884 -0.13998463 -3.96825293 -0.16033345 0 0 Z " fill="#5E5E5E" transform="translate(444.8125,103.75)"/>
<path d="M0 0 C0.66 0 1.32 0 2 0 C2.08040527 0.60360352 2.16081055 1.20720703 2.24365234 1.82910156 C3.6803954 12.58110452 5.12285482 23.31471203 7 34 C11.29 34 15.58 34 20 34 C20 34.66 20 35.32 20 36 C17.89758397 36.13496251 15.7927039 36.23197307 13.6875 36.3125 C12.51574219 36.37050781 11.34398437 36.42851562 10.13671875 36.48828125 C7 36 7 36 5.37695312 33.84179688 C3.91647106 30.82761049 3.32366894 28.34880838 2.83203125 25.04296875 C2.57583008 23.37524414 2.57583008 23.37524414 2.31445312 21.67382812 C2.14880859 20.52333984 1.98316406 19.37285156 1.8125 18.1875 C1.54663086 16.43276367 1.54663086 16.43276367 1.27539062 14.64257812 C0.84051995 11.76302905 0.41575858 8.88235993 0 6 C-0.99 7.32 -1.98 8.64 -3 10 C-2.49287967 6.28111761 -1.88391785 3.26545761 0 0 Z " fill="#5F5F5F" transform="translate(408,125)"/>
<path d="M0 0 C0.76183594 -0.00515625 1.52367187 -0.0103125 2.30859375 -0.015625 C5.00083777 0.30165852 6.42499368 0.54092632 8.5625 2.25 C9.390625 5.48046875 9.390625 5.48046875 9.8125 9.4375 C9.96203125 10.73042969 10.1115625 12.02335937 10.265625 13.35546875 C10.54394389 17.00657314 10.6194615 20.59022382 10.5625 24.25 C8.18533406 20.46045932 7.94428485 16.4087648 7.5 12.0625 C7.39903261 7.26839369 7.39903261 7.26839369 5.5625 3.25 C3.70962498 3.17773498 1.85416122 3.1661878 0 3.1875 C-1.01191406 3.19652344 -2.02382813 3.20554687 -3.06640625 3.21484375 C-3.84886719 3.22644531 -4.63132812 3.23804687 -5.4375 3.25 C-7.76080984 8.85526694 -9.90495644 14.37524968 -11.4375 20.25 C-12.0975 20.25 -12.7575 20.25 -13.4375 20.25 C-12.30364183 13.93918413 -10.74005824 7.80911049 -7.4375 2.25 C-4.32763793 0.17675862 -3.54641613 -0.02392186 0 0 Z " fill="#5A5A5A" transform="translate(856.4375,103.75)"/>
<path d="M0 0 C1.17046875 0.02707031 2.3409375 0.05414063 3.546875 0.08203125 C4.43890625 0.11683594 5.3309375 0.15164062 6.25 0.1875 C5.71148032 5.46499285 4.47656164 9.44395564 2.25 14.1875 C0.72135184 9.60155552 2.62436606 6.67424967 4.25 2.1875 C-1.69 2.6825 -1.69 2.6825 -7.75 3.1875 C-8.1625 4.46625 -8.575 5.745 -9 7.0625 C-10.70455586 12.19247913 -12.69447755 17.18955455 -14.75 22.1875 C-16.11556605 18.09080186 -14.81382823 15.14945191 -13.5625 11.1875 C-13.35302734 10.46304688 -13.14355469 9.73859375 -12.92773438 8.9921875 C-11.99471817 5.99103152 -11.08892075 3.57171083 -8.99609375 1.19921875 C-5.8992044 -0.19572793 -3.37993513 -0.10139805 0 0 Z " fill="#5B5B5B" transform="translate(889.75,103.8125)"/>
<path d="M0 0 C0.99 0.495 0.99 0.495 2 1 C2.4140625 4.16015625 2.4140625 4.16015625 2.625 8.0625 C2.69976562 9.35285156 2.77453125 10.64320312 2.8515625 11.97265625 C2.90054688 12.97167969 2.94953125 13.97070312 3 15 C3.33 15 3.66 15 4 15 C4.32712342 21.13053511 4.39366878 25.62669111 1 31 C0.67 31 0.34 31 0 31 C0 20.77 0 10.54 0 0 Z " fill="#E2F563" transform="translate(174,96)"/>
<path d="M0 0 C1.24425662 3.73276986 1.06863443 7.18122317 1 11.0625 C0.6843647 16.18187763 0.6843647 16.18187763 2 21 C4.97912793 22.0757962 6.55064087 22.1534397 9.5625 21.125 C13.08771817 18.05173288 14.38037974 14.31597131 16 10 C16.82273185 12.36734455 17.10990889 13.64262754 16.36328125 16.0703125 C16.01652344 16.74835938 15.66976563 17.42640625 15.3125 18.125 C14.97863281 18.80820313 14.64476562 19.49140625 14.30078125 20.1953125 C12.74098162 22.35935883 11.47583677 23.05795121 9 24 C5.59455796 24.35473355 3.68661754 24.38970185 0.6875 22.6875 C-2.25568726 19.74431274 -2.15987211 16.7063145 -2.1875 12.75 C-2.15663968 8.10243523 -1.55192111 4.36477813 0 0 Z " fill="#606060" transform="translate(332,125)"/>
<path d="M0 0 C1.15113281 -0.01417969 2.30226563 -0.02835937 3.48828125 -0.04296875 C6.53537478 0.17654104 8.23770679 0.39568482 10.6875 2.1875 C12.33949685 9.346153 11.77987828 16.87935149 11.6875 24.1875 C11.3575 24.1875 11.0275 24.1875 10.6875 24.1875 C9.54706028 19.28360922 9.33662631 14.37031746 9.08203125 9.36328125 C9.17090844 5.98559419 9.17090844 5.98559419 7.6875 3.1875 C5.50457226 2.95268307 3.31546826 2.77386677 1.125 2.625 C-0.67130859 2.49931641 -0.67130859 2.49931641 -2.50390625 2.37109375 C-3.43074219 2.31050781 -4.35757813 2.24992187 -5.3125 2.1875 C-4.9825 5.1575 -4.6525 8.1275 -4.3125 11.1875 C-7.34583922 8.15416078 -6.9771334 5.4131192 -7.3125 1.1875 C-5.45615553 -0.66884447 -2.48420097 0.01381647 0 0 Z " fill="#5B5B5B" transform="translate(823.3125,103.8125)"/>
<path d="M0 0 C1.5625 0.625 1.5625 0.625 2.5625 2.625 C2.60272391 4.9579866 2.60570247 7.29206666 2.5625 9.625 C0.5625 6.625 0.5625 6.625 -0.4375 2.625 C-4.0675 2.625 -7.6975 2.625 -11.4375 2.625 C-14.44088385 8.1139429 -16.25907983 13.19577217 -17.62890625 19.3046875 C-18.4375 21.625 -18.4375 21.625 -21.4375 23.625 C-18.25962134 6.29111638 -18.25962134 6.29111638 -12.5234375 0.7890625 C-8.58802715 -1.40710283 -4.32624312 -0.66557586 0 0 Z " fill="#5A5A5A" transform="translate(417.4375,104.375)"/>
<path d="M0 0 C0.66 0.66 1.32 1.32 2 2 C1.65075815 6.06697765 0.76881658 9.98506897 0 14 C4.62 14 9.24 14 14 14 C13.95875 12.7625 13.9175 11.525 13.875 10.25 C13.86341709 6.98362038 14.1431298 4.7853053 16 2 C16.33 2 16.66 2 17 2 C16.85970581 4.1462026 16.71261836 6.29196218 16.5625 8.4375 C16.48128906 9.63246094 16.40007812 10.82742187 16.31640625 12.05859375 C16 15 16 15 15 16 C12.50761431 16.12653198 10.05529559 16.18519825 7.5625 16.1875 C6.52125977 16.20586914 6.52125977 16.20586914 5.45898438 16.22460938 C3.63779099 16.22989842 1.8171308 16.12169207 0 16 C-0.66 15.34 -1.32 14.68 -2 14 C-1.7578125 10.7421875 -1.7578125 10.7421875 -1.125 6.875 C-0.92132813 5.59367188 -0.71765625 4.31234375 -0.5078125 2.9921875 C-0.34023438 2.00476563 -0.17265625 1.01734375 0 0 Z " fill="#626262" transform="translate(278,145)"/>
<path d="M0 0 C1.75183594 0.00386719 1.75183594 0.00386719 3.5390625 0.0078125 C4.70179688 0.00523438 5.86453125 0.00265625 7.0625 0 C10.1640625 0.1328125 10.1640625 0.1328125 13.1640625 1.1328125 C14.60614191 4.01697133 14.25801137 6.55002778 14.2265625 9.7578125 C14.21753906 10.94632813 14.20851563 12.13484375 14.19921875 13.359375 C14.18761719 14.27460937 14.17601562 15.18984375 14.1640625 16.1328125 C13.5040625 15.8028125 12.8440625 15.4728125 12.1640625 15.1328125 C11.55792341 11.14716204 11.41841515 7.16006281 11.1640625 3.1328125 C6.8740625 2.8028125 2.5840625 2.4728125 -1.8359375 2.1328125 C-1.8359375 4.4428125 -1.8359375 6.7528125 -1.8359375 9.1328125 C-3.98402921 5.91067493 -4.12979903 4.85505849 -3.8359375 1.1328125 C-2.8359375 0.1328125 -2.8359375 0.1328125 0 0 Z " fill="#565656" transform="translate(374.8359375,103.8671875)"/>
<path d="M0 0 C0.66 0.33 1.32 0.66 2 1 C0.48660052 5.23751854 -2.18991209 6.80187236 -6 9 C-7.9959722 9.67863055 -9.99568551 10.34641919 -12 11 C-12.70125 11.556875 -13.4025 12.11375 -14.125 12.6875 C-14.74375 13.120625 -15.3625 13.55375 -16 14 C-18.1171875 13.58203125 -18.1171875 13.58203125 -20 13 C-19.05898437 12.39671875 -18.11796875 11.7934375 -17.1484375 11.171875 C-15.89060733 10.36461086 -14.63279583 9.55731764 -13.375 8.75 C-12.75753906 8.35425781 -12.14007813 7.95851563 -11.50390625 7.55078125 C-7.64303969 5.07169851 -3.81044744 2.5559309 0 0 Z " fill="#59AB63" transform="translate(148,111)"/>
<path d="M0 0 C4.2129476 1.68517904 7.32315889 3.43476202 11 6 C7.52176885 7.15941038 5.54104422 6.70820884 2 6 C2.01047363 6.55985596 2.02094727 7.11971191 2.03173828 7.6965332 C2.07333326 10.23514307 2.09933685 12.7736812 2.125 15.3125 C2.14175781 16.19357422 2.15851563 17.07464844 2.17578125 17.98242188 C2.18222656 18.82998047 2.18867187 19.67753906 2.1953125 20.55078125 C2.21102295 21.72120972 2.21102295 21.72120972 2.22705078 22.9152832 C2 25 2 25 0 28 C0 18.76 0 9.52 0 0 Z " fill="#77F98B" transform="translate(101,82)"/>
<path d="M0 0 C0.66 2.31 1.32 4.62 2 7 C7.445 7.495 7.445 7.495 13 8 C13 8.66 13 9.32 13 10 C11.41705218 10.05437607 9.83355744 10.09296271 8.25 10.125 C7.36828125 10.14820313 6.4865625 10.17140625 5.578125 10.1953125 C2.83634728 9.98760207 1.28409305 9.50913291 -1 8 C-2.25 5.375 -2.25 5.375 -3 3 C-3.7425 3.639375 -4.485 4.27875 -5.25 4.9375 C-7.7111121 6.78333407 -9.03466926 7.56069174 -12 8 C-4.21621622 0 -4.21621622 0 0 0 Z " fill="#5B5B5B" transform="translate(619,151)"/>
<path d="M0 0 C0.33 0 0.66 0 1 0 C0.98839844 0.94319092 0.97679688 1.88638184 0.96484375 2.8581543 C0.94061396 6.37255549 0.95220897 9.88310723 0.98779297 13.3972168 C0.99588323 14.91511148 0.98986602 16.43315165 0.96923828 17.95092773 C0.5031585 26.61240379 0.5031585 26.61240379 3.84765625 34.13525391 C5.88065448 35.4058778 7.71083829 36.30549493 10 37 C7 38 7 38 4.4375 37.25 C2 36 2 36 0 33 C-0.1712914 30.45770403 -0.23242934 28.02810519 -0.1953125 25.48828125 C-0.1924826 24.76005661 -0.18965271 24.03183197 -0.18673706 23.28153992 C-0.17555257 20.95835863 -0.15045166 18.63556453 -0.125 16.3125 C-0.11496794 14.7363337 -0.10584248 13.16016135 -0.09765625 11.58398438 C-0.07561896 7.72250733 -0.04110141 3.86131929 0 0 Z " fill="#E2ED6B" transform="translate(74,96)"/>
<path d="M0 0 C-0.42089996 5.60461531 -0.91613111 10.72086547 -3 16 C-3.99 15.67 -4.98 15.34 -6 15 C-5.34 15 -4.68 15 -4 15 C-3.34 10.38 -2.68 5.76 -2 1 C-4.10375 1.433125 -4.10375 1.433125 -6.25 1.875 C-7.03890625 2.03742188 -7.8278125 2.19984375 -8.640625 2.3671875 C-10.96831144 2.99150075 -12.89031952 3.84838542 -15 5 C-13.9958588 2.2614331 -13.33822766 1.18790425 -10.75 -0.25 C-7.00585516 -1.27113041 -3.54900734 -1.77450367 0 0 Z " fill="#5E5E5E" transform="translate(317,105)"/>
<path d="M0 0 C0.66 0.33 1.32 0.66 2 1 C1.34 2.65 0.68 4.3 0 6 C0.66 6 1.32 6 2 6 C2 6.66 2 7.32 2 8 C1.01 8.33 0.02 8.66 -1 9 C-1.144375 10.093125 -1.28875 11.18625 -1.4375 12.3125 C-2 16 -2 16 -3 19 C-3.66 18.67 -4.32 18.34 -5 18 C-5.37876606 11.81348769 -4.92296816 7.50867077 -2 2 C-1.34 1.34 -0.68 0.68 0 0 Z " fill="#F4F17A" transform="translate(63,56)"/>
<path d="M0 0 C0.33 0 0.66 0 1 0 C1.66 3.96 2.32 7.92 3 12 C4.32 10.35 5.64 8.7 7 7 C6.68817931 8.41681634 6.37551263 9.83344651 6.0625 11.25 C5.88847656 12.03890625 5.71445312 12.8278125 5.53515625 13.640625 C5.052444 15.76878703 4.53836822 17.88532842 4 20 C3.01 20 2.02 20 1 20 C0.63704322 16.85511498 0.28611204 13.70900484 -0.0625 10.5625 C-0.16626953 9.66466797 -0.27003906 8.76683594 -0.37695312 7.84179688 C-0.47041016 6.98779297 -0.56386719 6.13378906 -0.66015625 5.25390625 C-0.74918213 4.46314697 -0.83820801 3.6723877 -0.92993164 2.85766602 C-0.9530542 2.24463623 -0.97617676 1.63160645 -1 1 C-0.67 0.67 -0.34 0.34 0 0 Z " fill="#626262" transform="translate(421,122)"/>
<path d="M0 0 C2.475 1.485 2.475 1.485 5 3 C4.39632003 6.21015704 3.37164702 8.22065406 1.3125 10.75 C0.83425781 11.36359375 0.35601562 11.9771875 -0.13671875 12.609375 C-2.87118645 14.65019366 -4.6511067 14.37710916 -8 14 C-11.2109375 12.90625 -11.2109375 12.90625 -14.375 11.5 C-15.43460937 11.0359375 -16.49421875 10.571875 -17.5859375 10.09375 C-18.78089844 9.55234375 -18.78089844 9.55234375 -20 9 C-17.5006397 8.09320261 -16.34865823 7.8702667 -13.81640625 8.8125 C-13.07261719 9.204375 -12.32882812 9.59625 -11.5625 10 C-8.8110153 11.294551 -7.25647803 11.99430049 -4.1875 12.0625 C-1.15308452 10.58864105 0.21748685 8.83881724 2 6 C2 4.68 2 3.36 2 2 C1.34 2 0.68 2 0 2 C0 1.34 0 0.68 0 0 Z " fill="#5F5F5F" transform="translate(272,88)"/>
<path d="M0 0 C1.32 0 2.64 0 4 0 C4 0.66 4 1.32 4 2 C4.99 2 5.98 2 7 2 C7 2.66 7 3.32 7 4 C8.32 4 9.64 4 11 4 C11 4.66 11 5.32 11 6 C13.97 6.495 13.97 6.495 17 7 C17.33 7.99 17.66 8.98 18 10 C19.29355827 11.37195574 20.62298702 12.71182656 22 14 C18.1882507 12.60764311 14.96245822 10.83376718 11.5625 8.625 C10.60859375 8.00625 9.6546875 7.3875 8.671875 6.75 C7.79015625 6.1725 6.9084375 5.595 6 5 C4.98679687 4.3503125 4.98679687 4.3503125 3.953125 3.6875 C2.61570917 2.82136403 1.30369357 1.91610899 0 1 C0 0.67 0 0.34 0 0 Z " fill="#6CBE56" transform="translate(84,133)"/>
<path d="M0 0 C-0.57344937 2.86724686 -0.8614515 3.8614515 -3 6 C-4.32 6 -5.64 6 -7 6 C-7.33 6.99 -7.66 7.98 -8 9 C-8.78375 9.103125 -9.5675 9.20625 -10.375 9.3125 C-13.33045181 9.77595022 -13.33045181 9.77595022 -15 13 C-15.99 13 -16.98 13 -18 13 C-18 12.34 -18 11.68 -18 11 C-16.3203125 9.7109375 -16.3203125 9.7109375 -14.125 8.375 C-13.40570313 7.92898437 -12.68640625 7.48296875 -11.9453125 7.0234375 C-10 6 -10 6 -8 6 C-8 5.34 -8 4.68 -8 4 C-6.68 3.67 -5.36 3.34 -4 3 C-4 2.34 -4 1.68 -4 1 C-2 0 -2 0 0 0 Z " fill="#CBE965" transform="translate(172,129)"/>
<path d="M0 0 C0.66 0.33 1.32 0.66 2 1 C1.67 1.66 1.34 2.32 1 3 C1.66 3 2.32 3 3 3 C3 5.64 3 8.28 3 11 C2.01 10.34 1.02 9.68 0 9 C-1.99172182 8.30899447 -3.99161804 7.64097297 -6 7 C-6.66 6.67 -7.32 6.34 -8 6 C-6.35 5.34 -4.7 4.68 -3 4 C-3 3.34 -3 2.68 -3 2 C-2.01 2 -1.02 2 0 2 C0 1.34 0 0.68 0 0 Z " fill="#373C36" transform="translate(145,82)"/>
<path d="M0 0 C0.96661182 2.58359827 1.08474541 3.75181702 0.1796875 6.40234375 C-3.84267794 14.21825743 -8.02141303 19.15845813 -16 23 C-16.99 22.67 -17.98 22.34 -19 22 C-17.73168307 21.18357746 -16.46024069 20.37200895 -15.1875 19.5625 C-14.47980469 19.11003906 -13.77210938 18.65757812 -13.04296875 18.19140625 C-11 17 -11 17 -8 16 C-6.92074762 14.26187261 -6.92074762 14.26187261 -6 12 C-4 8 -2 4 0 0 Z " fill="#606060" transform="translate(364,136)"/>
<path d="M0 0 C0.33 0 0.66 0 1 0 C1.66 3.63 2.32 7.26 3 11 C3.99 9.02 4.98 7.04 6 5 C7 7 7 7 6.22265625 9.6015625 C5.83980469 10.59929687 5.45695312 11.59703125 5.0625 12.625 C4.68222656 13.62789062 4.30195313 14.63078125 3.91015625 15.6640625 C3.60980469 16.43492187 3.30945313 17.20578125 3 18 C2.34 18 1.68 18 1 18 C-0.59412284 14.81175432 -0.10174735 11.37103338 -0.0625 7.875 C-0.05798828 7.12089844 -0.05347656 6.36679688 -0.04882812 5.58984375 C-0.03703499 3.72652873 -0.01909942 1.86325445 0 0 Z " fill="#5D5D5D" transform="translate(389,124)"/>
<path d="M0 0 C-2.70460896 1.80307264 -4.85172193 2.73275783 -7.875 3.8125 C-15.17713161 6.69519927 -18.68418955 11.71124762 -23 18 C-23.33 17.34 -23.66 16.68 -24 16 C-20.79086732 8.56064697 -15.11645072 3.82073782 -7.75 0.5625 C-5.07653858 0.01565562 -2.7201198 -0.16000705 0 0 Z " fill="#5E5E5E" transform="translate(342,104)"/>
<path d="M0 0 C0.33 0 0.66 0 1 0 C1.03738281 1.01320312 1.07476563 2.02640625 1.11328125 3.0703125 C1.17898388 4.42190939 1.24542971 5.77347029 1.3125 7.125 C1.33505859 7.79015625 1.35761719 8.4553125 1.38085938 9.140625 C1.62998632 13.76079749 2.54866423 17.0755337 5 21 C5.99 21.66 6.98 22.32 8 23 C8 23.66 8 24.32 8 25 C4.44413038 24.03895416 3.23198281 23.37282951 1.25 20.1875 C-1.11450424 14.1580142 -1.38747575 8.43893532 -1 2 C-0.67 1.34 -0.34 0.68 0 0 Z " fill="#595959" transform="translate(585,134)"/>
<path d="M0 0 C0.33 0 0.66 0 1 0 C1.0989211 4.21746325 1.17149012 8.43431121 1.21972656 12.65258789 C1.23983525 14.08727786 1.26712673 15.52188593 1.30175781 16.95629883 C1.3503146 19.01924839 1.37297406 21.08111431 1.390625 23.14453125 C1.41157227 24.38565674 1.43251953 25.62678223 1.45410156 26.90551758 C1 30 1 30 -1.02441406 31.9284668 C-2.0023291 32.45887573 -2.0023291 32.45887573 -3 33 C-3.66 32.67 -4.32 32.34 -5 32 C-3.68 31.34 -2.36 30.68 -1 30 C-0.67 21.42 -0.34 12.84 0 4 C-0.66 4 -1.32 4 -2 4 C-1.34 2.68 -0.68 1.36 0 0 Z " fill="#2F432B" transform="translate(148,81)"/>
<path d="M0 0 C0.99 0.33 1.98 0.66 3 1 C2.34 1 1.68 1 1 1 C1 1.66 1 2.32 1 3 C-3.62 5.64 -8.24 8.28 -13 11 C-13 10.01 -13 9.02 -13 8 C-11.35 7.67 -9.7 7.34 -8 7 C-8.33 5.35 -8.66 3.7 -9 2 C-6 2 -3 2 0 2 C0 1.34 0 0.68 0 0 Z " fill="#66BE58" transform="translate(153,139)"/>
<path d="M0 0 C0.33 0 0.66 0 1 0 C1.66 2.31 2.32 4.62 3 7 C3.66 4.69 4.32 2.38 5 0 C5.66 0 6.32 0 7 0 C6.71572583 1.58467728 6.42225182 3.1677057 6.125 4.75 C5.96257813 5.63171875 5.80015625 6.5134375 5.6328125 7.421875 C5.03203736 9.86947744 4.22002883 11.80599857 3 14 C2.34 14 1.68 14 1 14 C0.04738513 9.23692563 -0.08333357 4.8333472 0 0 Z " fill="#5C5C5C" transform="translate(867,128)"/>
<path d="M0 0 C-1.54848731 1.20571536 -3.11444206 2.38902174 -4.6875 3.5625 C-5.99267578 4.55443359 -5.99267578 4.55443359 -7.32421875 5.56640625 C-10 7 -10 7 -12.70703125 6.90234375 C-15 6 -15 6 -17 3 C-16.4225 3.37125 -15.845 3.7425 -15.25 4.125 C-13.03589143 5.25877147 -13.03589143 5.25877147 -10.875 4.3125 C-8.71929597 2.97278165 -8.71929597 2.97278165 -7 0 C-4.02096037 -1.15317663 -3.13440869 -1.0448029 0 0 Z " fill="#DEE66B" transform="translate(137,89)"/>
<path d="M0 0 C-3.625 3 -3.625 3 -7 3 C-7.33 3.99 -7.66 4.98 -8 6 C-10.5625 7.1875 -10.5625 7.1875 -13 8 C-13 6.68 -13 5.36 -13 4 C-12.01 4 -11.02 4 -10 4 C-9.67 2.68 -9.34 1.36 -9 0 C-3.375 -1.125 -3.375 -1.125 0 0 Z " fill="#DFE06A" transform="translate(89,88)"/>
<path d="M0 0 C0.33 0 0.66 0 1 0 C1.15855469 0.66386719 1.31710938 1.32773438 1.48046875 2.01171875 C2.97814414 7.67971676 4.32649496 11.1653292 9 15 C9.66 15.66 10.32 16.32 11 17 C10.01 17.33 9.02 17.66 8 18 C3.42363231 13.28903326 0.03571562 9.6026871 -1 3 C-0.67 2.01 -0.34 1.02 0 0 Z " fill="#5E5E5E" transform="translate(227,129)"/>
<path d="M0 0 C4.31574219 1.05857827 6.95044138 1.81182508 10 5 C12.60611077 5.72197162 12.60611077 5.72197162 15 6 C15.33 6.99 15.66 7.98 16 9 C10.04675579 7.60668753 5.24258516 5.11464243 0 2 C0 1.34 0 0.68 0 0 Z " fill="#C0F76E" transform="translate(150,81)"/>
<path d="M0 0 C0.99 0.33 1.98 0.66 3 1 C3.33923576 3.35344806 3.67150534 5.7075484 4 8.0625 C4.09539063 8.71927734 4.19078125 9.37605469 4.2890625 10.05273438 C4.88887674 14.40138763 5.09127093 18.61329071 5 23 C2.65253315 19.23815982 2.3836696 15.24788633 1.9375 10.9375 C1.36636863 5.39305857 1.36636863 5.39305857 0 0 Z " fill="#606060" transform="translate(862,105)"/>
<path d="M0 0 C0.66 0.33 1.32 0.66 2 1 C-0.2370804 4.3556206 -0.42517038 4.19278041 -4 5 C-4.33 5.66 -4.66 6.32 -5 7 C-5.99 7 -6.98 7 -8 7 C-8.33 7.99 -8.66 8.98 -9 10 C-10.32 9.67 -11.64 9.34 -13 9 C-11.39612733 7.8745809 -9.79189084 6.74968028 -8.1875 5.625 C-7.29417969 4.99851563 -6.40085938 4.37203125 -5.48046875 3.7265625 C-3.66732122 2.46449761 -1.83811789 1.22541192 0 0 Z " fill="#CAED6A" transform="translate(147,145)"/>
<path d="M0 0 C0.66 0.33 1.32 0.66 2 1 C1.40951275 3.29600624 0.80347088 5.58582824 0.1875 7.875 C-0.14894531 9.15117188 -0.48539062 10.42734375 -0.83203125 11.7421875 C-2 15 -2 15 -5 17 C-3.83348574 11.07136283 -2.24480642 5.61201606 0 0 Z " fill="#626262" transform="translate(401,111)"/>
<path d="M0 0 C0.99 0.33 1.98 0.66 3 1 C1.01388388 2.98611612 -0.44143249 3.91454712 -3 5 C-3.99 5 -4.98 5 -6 5 C-6.33 5.99 -6.66 6.98 -7 8 C-7.66 8 -8.32 8 -9 8 C-9.33 6.68 -9.66 5.36 -10 4 C-8.35 3.67 -6.7 3.34 -5 3 C-5 2.67 -5 2.34 -5 2 C-3.35 2 -1.7 2 0 2 C0 1.34 0 0.68 0 0 Z " fill="#E3E669" transform="translate(98,79)"/>
<path d="M0 0 C-0.33 0.99 -0.66 1.98 -1 3 C-3.31104818 4.05047644 -5.64583651 5.05007438 -8 6 C-8.66 6.66 -9.32 7.32 -10 8 C-12.125 7.625 -12.125 7.625 -14 7 C-12.23462904 5.82508418 -10.46250287 4.66031316 -8.6875 3.5 C-7.70136719 2.8503125 -6.71523437 2.200625 -5.69921875 1.53125 C-3 0 -3 0 0 0 Z " fill="#61A465" transform="translate(142,117)"/>
<path d="M0 0 C0.33 0.66 0.66 1.32 1 2 C-1.36620011 4.61527381 -3.942048 6.26440562 -7 8 C-7.33 7.01 -7.66 6.02 -8 5 C-6.37633534 1.75267068 -3.24612161 1.29844864 0 0 Z " fill="#5B5932" transform="translate(99,81)"/>
<path d="M0 0 C5.61457551 0.3618282 10.11488614 0.94680384 15 4 C15.33 4.66 15.66 5.32 16 6 C12.50577615 5.19429304 9.14682647 4.08208283 5.75 2.9375 C4.67234375 2.57527344 3.5946875 2.21304688 2.484375 1.83984375 C1.66453125 1.56269531 0.8446875 1.28554687 0 1 C0 0.67 0 0.34 0 0 Z " fill="#606060" transform="translate(711,82)"/>
<path d="M0 0 C4.10958767 1.45044271 7.43258745 3.51110752 11 6 C9.234375 6.64453125 9.234375 6.64453125 7 7 C5.078125 6.07421875 5.078125 6.07421875 3.25 4.6875 C2.63640625 4.23761719 2.0228125 3.78773437 1.390625 3.32421875 C0.93171875 2.88722656 0.4728125 2.45023437 0 2 C0 1.34 0 0.68 0 0 Z " fill="#9DF777" transform="translate(162,89)"/>
<path d="M0 0 C0.66 0.33 1.32 0.66 2 1 C1.2890625 2.953125 1.2890625 2.953125 0 5 C-2.1640625 5.609375 -2.1640625 5.609375 -4.625 5.75 C-5.44226563 5.80671875 -6.25953125 5.8634375 -7.1015625 5.921875 C-7.72804688 5.94765625 -8.35453125 5.9734375 -9 6 C-6 4 -3 2 0 0 Z " fill="#D0EC63" transform="translate(132,155)"/>
<path d="M0 0 C-1.16082625 3.48247874 -1.90932476 3.88819244 -4.9375 5.75 C-5.64777344 6.19859375 -6.35804688 6.6471875 -7.08984375 7.109375 C-7.72019531 7.40328125 -8.35054687 7.6971875 -9 8 C-9.66 7.67 -10.32 7.34 -11 7 C-9.54634731 5.82750647 -8.08692581 4.66216184 -6.625 3.5 C-5.40683594 2.52546875 -5.40683594 2.52546875 -4.1640625 1.53125 C-2 0 -2 0 0 0 Z " fill="#636363" transform="translate(618,151)"/>
<path d="M0 0 C0.33 0 0.66 0 1 0 C0.67 4.29 0.34 8.58 0 13 C-0.66 12.67 -1.32 12.34 -2 12 C-2.28571429 3.42857143 -2.28571429 3.42857143 0 0 Z " fill="#595959" transform="translate(294,147)"/>
<path d="M0 0 C0.33 0 0.66 0 1 0 C1 1.98 1 3.96 1 6 C0.01 6.495 0.01 6.495 -1 7 C-1.99 6.67 -2.98 6.34 -4 6 C-4 5.34 -4 4.68 -4 4 C-3.34 4 -2.68 4 -2 4 C-1.34 2.68 -0.68 1.36 0 0 Z " fill="#5DFD8B" transform="translate(121,113)"/>
<path d="M0 0 C0.66 0.33 1.32 0.66 2 1 C-1.08290155 5.22797927 -1.08290155 5.22797927 -3 7 C-5.8125 7.375 -5.8125 7.375 -8 7 C-6.625 5.5 -6.625 5.5 -5 4 C-4.34 4 -3.68 4 -3 4 C-3 3.34 -3 2.68 -3 2 C-2.01 2 -1.02 2 0 2 C0 1.34 0 0.68 0 0 Z " fill="#676735" transform="translate(145,82)"/>
<path d="M0 0 C5.75 1.625 5.75 1.625 8 5 C1.84765625 4.4140625 1.84765625 4.4140625 0 4 C-0.33 3.34 -0.66 2.68 -1 2 C-0.67 1.34 -0.34 0.68 0 0 Z " fill="#7DF77A" transform="translate(104,84)"/>
<path d="M0 0 C-2.48952921 2.66735273 -4.63408134 4.55746343 -8 6 C-8 3 -8 3 -6.8125 1.3125 C-4.44258278 -0.40364695 -2.85974334 -0.23187108 0 0 Z " fill="#63BE58" transform="translate(135,153)"/>
<path d="M0 0 C2.4375 1.3125 2.4375 1.3125 3.25 3.4375 C3.311875 4.05625 3.37375 4.675 3.4375 5.3125 C0.06246331 4.1266763 -2.20972731 3.03676311 -4.5625 0.3125 C-2.5625 -0.6875 -2.5625 -0.6875 0 0 Z " fill="#6CEB82" transform="translate(158.5625,113.6875)"/>
<path d="M0 0 C5.75 4.75 5.75 4.75 8 7 C7.01 7.33 6.02 7.66 5 8 C3.02 5.69 1.04 3.38 -1 1 C-0.67 0.67 -0.34 0.34 0 0 Z " fill="#545454" transform="translate(230,139)"/>
<path d="M0 0 C0.66 0.33 1.32 0.66 2 1 C-0.97 4.96 -0.97 4.96 -4 9 C-4 5.00095031 -2.27413033 3.19799578 0 0 Z " fill="#616161" transform="translate(480,113)"/>
<path d="M0 0 C3.77545388 1.09068668 6.47043472 1.9083091 9 5 C5.65626525 4.44271087 2.96687001 3.64826111 0 2 C0 1.34 0 0.68 0 0 Z " fill="#5A5A5A" transform="translate(263,83)"/>
</svg>
